<svg width="512" height="512" viewBox="0 0 512 512" fill="none" xmlns="http://www.w3.org/2000/svg" xmlns:xlink="http://www.w3.org/1999/xlink" class=""><rect id="_r_9_" width="512" height="512" x="0" y="0" rx="128" fill="#ffffff" stroke="#FFFFFF" stroke-width="0" stroke-opacity="100%" paint-order="stroke"></rect><clipPath id="clip"><use xlink:href="#_r_9_"></use></clipPath><defs><linearGradient id="_r_a_" gradientUnits="userSpaceOnUse" gradientTransform="rotate(45)" style="transform-origin: center center;"><stop stop-color="#ffffff"></stop><stop offset="1" stop-color="#666666"></stop></linearGradient><radialGradient id="_r_b_" cx="0" cy="0" r="1" gradientUnits="userSpaceOnUse" gradientTransform="translate(256) rotate(90) scale(512)"><stop stop-color="white"></stop><stop offset="1" stop-color="white" stop-opacity="0"></stop></radialGradient></defs>

<svg version="1.0" xmlns="http://www.w3.org/2000/svg" width="440" height="440" viewBox="0 0 90.000000 150.000000" preserveAspectRatio="xMidYMid meet" x="36" y="36" alignment-baseline="middle" style="color: rgb(35, 35, 35); width: 440px; height: 440px;">

<g transform="translate(0.000000,150.000000) scale(0.100000,-0.100000)" fill="#000000" stroke="none">
<path d="M327 1458 c-41 -29 -60 -48 -64 -69 -6 -32 -41 -59 -77 -59 -29 0
-86 -45 -86 -68 0 -9 -18 -33 -41 -54 -49 -45 -46 -75 9 -94 1 0 -7 -36 -19
-80 -13 -51 -18 -95 -15 -124 7 -61 58 -208 73 -214 26 -10 200 55 237 88 l35
33 12 -34 c6 -19 8 -44 5 -57 -3 -12 -1 -38 5 -57 5 -19 14 -55 18 -81 7 -39
5 -47 -9 -51 -19 -5 -50 -65 -50 -95 0 -20 36 -52 74 -66 47 -17 -3 -17 -101
-1 l-108 18 -112 -57 -113 -56 0 -48 c0 -43 4 -52 45 -92 25 -24 45 -53 45
-63 0 -11 5 -17 13 -14 23 8 6 52 -39 98 -34 34 -45 53 -42 70 2 13 8 23 13
22 59 -9 381 -75 387 -79 4 -3 8 -19 8 -35 0 -58 14 -69 78 -63 116 12 192 42
236 94 43 52 36 64 -55 102 -45 18 -83 38 -86 44 -2 6 1 23 6 37 9 22 17 27
43 27 18 0 58 13 88 30 31 16 71 29 91 30 20 0 42 6 48 14 12 15 8 54 -11 92
-7 15 -5 34 8 70 12 33 19 91 22 179 l4 130 -34 50 c-27 38 -42 51 -64 53 -62
6 -75 12 -69 31 3 12 0 21 -10 25 -19 7 -20 36 0 36 25 0 17 24 -17 53 l-31
28 21 15 c26 18 29 34 4 28 -12 -4 -22 6 -37 38 -27 58 -72 83 -147 81 -31 -1
-71 -9 -88 -18 -30 -16 -31 -16 -21 3 6 11 22 27 36 36 14 9 25 22 25 30 0 17
-60 86 -74 85 -6 -1 -37 -19 -69 -41z m98 -18 c17 -18 23 -30 15 -30 -15 0
-60 39 -60 52 0 16 17 8 45 -22z m-40 -27 c16 -24 16 -28 2 -52 -21 -35 -43
-38 -51 -7 -4 17 -13 26 -26 26 -29 0 -25 23 8 42 37 24 47 22 67 -9z m-75
-61 c0 -19 -49 -54 -66 -48 -14 6 -12 11 16 31 35 26 50 31 50 17z m-120 -62
c0 -25 -37 -47 -54 -30 -8 8 -5 16 14 30 32 25 40 25 40 0z m166 -58 c0 -68 8
-103 38 -173 5 -12 -3 -18 -33 -28 -24 -7 -65 -34 -101 -68 -33 -31 -62 -54
-64 -52 -8 9 -25 160 -20 176 18 57 28 72 54 83 32 13 50 46 43 82 -5 29 26
58 62 58 18 0 20 -7 21 -78z m-112 32 c13 -35 5 -54 -33 -78 -62 -40 -71 -91
-45 -254 5 -35 4 -40 -17 -45 -17 -5 -21 -9 -13 -17 18 -18 61 5 128 67 60 56
108 83 145 83 20 0 25 -10 33 -65 2 -11 6 -18 10 -15 3 3 17 -5 30 -16 13 -12
38 -24 56 -28 31 -5 33 -4 26 16 -6 19 -4 21 30 15 41 -7 44 -2 17 27 l-20 21
44 0 43 0 -5 -70 c-3 -38 -8 -92 -12 -120 -6 -48 -8 -50 -39 -53 -49 -5 -62
11 -62 79 0 33 -4 59 -10 59 -15 0 -13 -135 3 -148 7 -6 31 -12 54 -14 l41 -3
-15 -38 c-14 -34 -19 -38 -47 -35 -27 3 -31 7 -34 36 -4 43 -22 41 -22 -3 0
-33 -2 -35 -36 -35 -41 0 -38 -15 5 -25 54 -12 42 -85 -14 -85 -31 0 -38 19
-61 176 -6 41 -6 42 20 37 33 -7 35 13 2 21 -28 7 -46 49 -46 107 0 22 -4 39
-10 39 -5 0 -10 -10 -10 -23 0 -24 -56 -85 -97 -106 -27 -14 -143 -51 -160
-51 -18 0 -63 148 -63 210 0 30 10 88 21 128 20 66 27 77 83 125 46 39 60 57
58 75 -4 25 13 30 22 6z m286 -18 c65 -2 89 -29 92 -104 3 -62 -14 -101 -36
-83 -12 9 -111 22 -102 14 3 -3 -5 -14 -17 -23 -22 -18 -22 -18 -49 28 -42 74
-45 112 -12 151 22 27 32 31 53 26 14 -4 46 -8 71 -9z m-380 -45 c-39 -34 -47
-38 -60 -25 -12 12 -12 16 2 30 9 10 34 20 55 24 21 4 40 8 43 9 3 0 -15 -17
-40 -38z m-80 -46 c0 -8 -4 -15 -10 -15 -5 0 -10 7 -10 15 0 8 5 15 10 15 6 0
10 -7 10 -15z m489 -119 c9 -11 5 -16 -20 -25 -42 -14 -62 -14 -57 2 4 11 44
37 59 37 4 0 12 -6 18 -14z m121 -17 c0 -6 -4 -7 -10 -4 -5 3 -10 11 -10 16 0
6 5 7 10 4 6 -3 10 -11 10 -16z m181 -75 c10 -13 13 -46 11 -133 -4 -133 -25
-231 -58 -270 -20 -24 -95 -77 -206 -145 -23 -13 -28 -24 -28 -55 0 -59 -8
-71 -45 -71 -40 0 -50 12 -34 38 12 19 9 33 -13 64 -16 23 6 48 42 48 22 0 50
21 124 93 l96 93 0 117 c0 128 10 168 54 212 29 29 39 31 57 9z m-281 -348 c0
-3 -4 -8 -10 -11 -5 -3 -10 -1 -10 4 0 6 5 11 10 11 6 0 10 -2 10 -4z m-286
-239 l58 -12 -56 -24 c-31 -12 -56 -28 -56 -34 0 -7 13 -21 29 -32 17 -11 28
-21 26 -23 -6 -6 -235 41 -235 48 0 5 159 89 170 89 3 0 31 -5 64 -12z m186
-30 c0 -21 -22 -37 -50 -37 -15 0 -47 -7 -73 -16 -36 -12 -50 -13 -68 -3 -22
11 -22 12 12 26 86 37 179 52 179 30z m195 -73 c67 -27 82 -43 43 -45 -13 -1
-69 -4 -126 -8 -56 -3 -102 -4 -102 -1 0 7 68 50 79 50 5 0 14 7 21 15 16 19
8 20 85 -11z m-195 2 l32 -13 -36 -23 c-35 -21 -40 -21 -101 -9 -36 7 -62 16
-58 20 8 8 100 37 119 38 7 1 26 -5 44 -13z m240 -76 c0 -16 -82 -57 -138 -69
-105 -22 -132 -14 -132 40 0 17 8 19 78 20 63 1 179 12 190 18 1 0 2 -3 2 -9z"></path>
<path d="M518 1189 c-10 -5 -18 -19 -18 -29 0 -24 15 -26 24 -5 3 8 12 15 19
15 8 0 20 7 27 15 10 13 9 15 -11 15 -13 0 -32 -5 -41 -11z"></path>
<path d="M423 1172 c-31 -5 -29 -13 10 -37 48 -29 50 -29 42 -4 -10 33 -26 46
-52 41z"></path>
</g>
</svg>
</svg>