<svg xmlns="http://www.w3.org/2000/svg" fill="#000" data-name="Layer 1" viewBox="0 0 60.04 100" x="0px" y="0px"><title>06</title><path d="M51,24.32c-.62-.94-2.59-.68-3.88-.39a.65.65,0,0,0-.21,1.17,3,3,0,0,0,1.24.51c1.22.16,3.41,3.17,3.41,3.17S52.15,26,51,24.32Z" transform="translate(-19.98 -2)"/><path d="M54.28,25.62c.3-1.16,1.63-1.49,2.12-1.62a16.34,16.34,0,0,0,2.11-1.22.47.47,0,0,0,.11-.77,13.28,13.28,0,0,0-3.46.4c-1.63.46-1.69,1-1.69,1C53.16,25.43,54,26.79,54.28,25.62Z" transform="translate(-19.98 -2)"/><path d="M78.77,59.09l.18-.62a19.15,19.15,0,0,0,.71-9.09,14.86,14.86,0,0,1,.13-3.58c.29-2.71.62-5.78-1.16-8a6.11,6.11,0,0,0-1.69-1.43,2.69,2.69,0,0,0-1.36-2.56c-1.38-.92-3.45-.62-5-.58a15.52,15.52,0,0,0-2.08-1.09c.59-.65,1.2-1.61.34-2.13-1.4-.84-2.33-1.1-1.75-2.48s1.75.51,1.75.51a2.6,2.6,0,0,0-.33-3.16c-1.42-1.4-1.85-.34-2.39-2A3.27,3.27,0,0,0,65,21.33l0-.14a1.26,1.26,0,0,1,.67.12c1.74.79,2.2-2.46,2.2-2.46s-2.55,1.51-2.84-.7-3-5.8-4.47-6S55.58,9.81,53,11.67c0,0-2.58-1-4.14.46a14.75,14.75,0,0,1-2.91,1.68,15.44,15.44,0,0,1,2.13-3.07,6.08,6.08,0,0,1,2.16-1.5c.26-.12.53-.24.81-.4A1.06,1.06,0,0,0,51.57,8c.13-.89-.76-1.89-2.67-3.82A15.06,15.06,0,0,1,47.59,2.8,1.56,1.56,0,0,0,46.48,2c-.8-.1-1.46.51-2.44,1.43l-.5.47a27.36,27.36,0,0,1-5.18,3,.78.78,0,0,0-.45.6l-.47,3.38-3.63,2.81a2.62,2.62,0,0,0-.66-.37c-1.68-.64-4.79,1.24-5.88,3.13A2.39,2.39,0,0,0,27.1,19l-4.34,3.36-.07.08,0,0c-.18.21-1.77,2.1-1.05,3.68.44,1,1.52,1.45,3.28,1.53-1.3,3.27-2.8,9.15-2.8,12.8a20.13,20.13,0,0,0,1.82,7.89,31.85,31.85,0,0,1,1.08,3c.11.4.21.77.3,1.11.41,1.57.68,2.6,1.61,3.08a2.17,2.17,0,0,0,1,.23,6.66,6.66,0,0,0,2.19-.51c.87-.32,1.94-.63,3.07-.95,3.11-.89,7-2,9.54-4.24l.06-.06,2.56-2.78a14.77,14.77,0,0,0,1.26,4.29c-.15,1-.6,4.56.08,6.26.55,1.39,1.15,2.89,1.36,3.44a8.92,8.92,0,0,0,.68,5.3,1.85,1.85,0,0,0-.56-.33c-1.8-.7-1.54,1-2.28,1.74S42.73,71.58,44.54,74c1.33,1.8,4.05,2.84,5.38,3.26,0,.07,0,.15,0,.22a2.44,2.44,0,0,0,0,.34l-1.8.36L35.38,75.76a.78.78,0,0,0-.5.07L20.41,83.07a.78.78,0,0,0-.2.14v0a.78.78,0,0,0-.14.21l0,.08a.77.77,0,0,0,0,.2s0,0,0,.05v5.33a.78.78,0,0,0,.3.62A38.7,38.7,0,0,1,24.8,94c1.56,1.81,1.4,3.08,1.4,3.12a.78.78,0,0,0,.63.91H27a.78.78,0,0,0,.77-.64c0-.2.3-2-1.75-4.42a38.48,38.48,0,0,0-4.44-4.21v-4l27,5.57a12.34,12.34,0,0,0,.74,6.19A.78.78,0,0,0,50,97c.12,0,.68,0,1.55,0,4.24,0,15.85-.73,19.56-8.48a1.89,1.89,0,0,0,.36-.9v0a1.86,1.86,0,0,0-1.06-1.89A107.46,107.46,0,0,0,60.2,81.46a40.1,40.1,0,0,0,.19-4.15c.47-.22,1-.51,1.62-.84a17.54,17.54,0,0,0,4.13-.12c2-.41,6-4.07,8.22-3.72s5.22-.17,4.87-2.26-.79-5.74-2.28-4.87l-.06,0a24.65,24.65,0,0,0,1.53-5C78.55,60,78.66,59.5,78.77,59.09ZM32.91,42c-.19-1.9-.64-6-1.28-9.18-.69-3.46,1.33-7,1.87-7.9.92-.34,3.72-1.49,4.63-3.23a.76.76,0,0,0,.06-.16,7.42,7.42,0,0,0-.3-4.4l2.7-2.33h0l3.94,0a5.55,5.55,0,0,0-1.35,2.67v3.8a3.68,3.68,0,0,0,.72,2.19c.05.38.11.75.16,1.14l.08.54a11.84,11.84,0,0,0,2.11,5.52,12.07,12.07,0,0,1,.91,1.51,20.1,20.1,0,0,0-3.92,1.26c-3.47,1.44-8.47,6.43-9.56,7.89A2.47,2.47,0,0,1,32.91,42ZM38.57,12l.13-.1.59-.46c.29-.1,1.31-.43,1.66.08a.8.8,0,0,1-.2,1l-3.62,3.12a2.18,2.18,0,0,0-.88-.65,2.23,2.23,0,0,0-1.57,0ZM52.93,33.14a3.44,3.44,0,0,0,1.84-.67c1.9-1.07,2.09.23,2.78.67a6.75,6.75,0,0,0,.67.36c-.38.31-.63.53-.63.53s-2.44.84-3.52,1.31a3.29,3.29,0,0,1-1.89.13C52.15,34.82,52.11,33.24,52.93,33.14Zm-4.15-1.29a15.86,15.86,0,0,0-1.24-2.09A10.43,10.43,0,0,1,45.74,25l-.09-.59c-.11-.71-.21-1.39-.27-2l.49-1a9.89,9.89,0,0,1,3.51-3.74,6.33,6.33,0,0,1,2.34.76c1.07.7,1.33,1.54,3,1s2-1.6,3.46-.82,1.32,3,2.41,2.81.13,3,.83,4.13a3.82,3.82,0,0,1,.4,2.39.76.76,0,0,0-.1.61,7.22,7.22,0,0,1-.45,1.85A3.29,3.29,0,0,0,59.93,32c-1.75-1.5-2.16-1.47-4.46-1.38a8,8,0,0,0-1.55.21,2.11,2.11,0,0,0-2.43-.6,1.12,1.12,0,0,0,1.24.67,2,2,0,0,1,.92,0c-1.12.31-1.88.81-2.88,1.12-.76.23-.79,1.22-.64,2.13A19.7,19.7,0,0,1,48.78,31.85ZM64.71,35c-.18-.32-.45-.82-.79-1.55a2.8,2.8,0,0,0-.5-.74l.12,0h0a7.81,7.81,0,0,1,1.76.32l-.09,2.05ZM57.25,63.9c-.07-.6-.13-1.33-.17-2.09.56,0,1.27,0,2,0C58.5,62.5,57.89,63.21,57.25,63.9Zm-11-60.3,0,0a13,13,0,0,0,1.51,1.67,20.68,20.68,0,0,1,2.1,2.34l-.33.15a9.55,9.55,0,0,0-1,.52h0A17.83,17.83,0,0,1,45.1,4.59h0A9.54,9.54,0,0,1,46.25,3.61Zm-2.33,2a22,22,0,0,0,3.34,3.71l-.32.31a17.5,17.5,0,0,0-2.51,3.64l-2.22,0a2.29,2.29,0,0,0,0-2.56,2.69,2.69,0,0,0-3.07-.81L39.4,8.2A31.43,31.43,0,0,0,43.92,5.61ZM28.62,17.29c.87-1.5,3.26-2.72,4-2.45.4.15.48.38.5.56a3.35,3.35,0,0,1-1.63,2.54,2.88,2.88,0,0,1-2.91.35C28.41,18.17,28.25,17.92,28.62,17.29Zm-.23,2.65,0,0a4.41,4.41,0,0,0,4-.7,6.69,6.69,0,0,0,.67-.56c.06.15.13.28.2.41l-6.64,5.73a2.72,2.72,0,0,0-.23-.78,2.92,2.92,0,0,0-1.45-1.39ZM23,25.45c-.17-.37.16-1.1.54-1.65a2,2,0,0,1,1.39.87,1.9,1.9,0,0,1-.06,1.4C23.39,26,23.09,25.59,23,25.45ZM48,52.78a7,7,0,0,0,2.6.9h.1a.78.78,0,0,0,.09-1.56A5.87,5.87,0,0,1,48,50.9c-1.7-3.4-1.33-8.26-1.33-8.31a.78.78,0,0,0-1.56-.13,21.52,21.52,0,0,0,0,2.68l-3.48,3.78c-2.31,2-5.81,3-8.91,3.89-1.16.33-2.26.64-3.18,1-1.27.47-1.76.45-1.94.36s-.55-1.06-.82-2.09c-.09-.35-.19-.73-.31-1.14a33.65,33.65,0,0,0-1.13-3.18,18.84,18.84,0,0,1-1.72-7.31c0-4.45,2.43-12.44,3.5-13.9a.77.77,0,0,0,.11-.23l7.19-6.21a.77.77,0,0,0,.43-.17.78.78,0,0,0,.09-1.1,2.44,2.44,0,0,1-.62-1.53.76.76,0,0,1,.43-.54,1.19,1.19,0,0,1,.9-.23,1.08,1.08,0,0,1,.49.63.75.75,0,0,0,0,.1.73.73,0,0,0,0,.1A5.44,5.44,0,0,1,36.7,21c-.69,1.17-3.08,2.18-4,2.48a.78.78,0,0,0-.39.3c-.13.19-3.17,4.68-2.25,9.3.69,3.44,1.15,7.87,1.3,9.47a12.78,12.78,0,0,1-1.7.39.78.78,0,0,0,.12,1.56h.12c.39-.06,3.83-.62,5-2.22,1-1.33,5.75-6.08,8.91-7.39A14.94,14.94,0,0,1,48,33.67,12.56,12.56,0,0,0,49.61,36a7.77,7.77,0,0,1-.13,2.34c-.35,1.12,1.32,2.22,1.32,2.22s.07-2.65.68-1.25,1.71,2.78,2.86,2.65a20.8,20.8,0,0,1,4.32.6l-2-2.76c1.07,1,1.6.2,2.42.2a27.14,27.14,0,0,1,3.34.56,4.55,4.55,0,0,0-1.85-2.22,1.68,1.68,0,0,1-1-1.7,4.92,4.92,0,0,0,3.59.93,8.8,8.8,0,0,0,2-1.08C65.1,38,65,39.64,65,41.13a76.64,76.64,0,0,1-1.35,12.09h-4c-2,0-2.12-1.23-2.12-1.47,0,0,0,0,0-.07a66.12,66.12,0,0,1-.08-7,.78.78,0,0,0-.74-.82.79.79,0,0,0-.82.74,66.51,66.51,0,0,0,.08,7.21,3.05,3.05,0,0,0,.87,2,3.81,3.81,0,0,0,2.82,1h3.63A12,12,0,0,1,61,59.66l-.6.66A29.46,29.46,0,0,0,57,60.25c-.1-2.3-.13-4.48-.13-4.51a.79.79,0,0,0-.79-.77.78.78,0,0,0-.77.79c0,.15,0,2.37.13,4.69a14,14,0,0,1-3.71-.73.78.78,0,0,0-.49,1.49,15.64,15.64,0,0,0,4.28.8c.07,1.06.15,2,.27,2.76a.77.77,0,0,0,.23.43c-.47.47-.95.93-1.43,1.35a4.64,4.64,0,0,1-3.26,1.12.78.78,0,0,0-.16-.27,7,7,0,0,1-1.56-6.05.78.78,0,0,0,0-.48s-.76-1.93-1.45-3.67A12.08,12.08,0,0,1,48,52.78Zm2.9,29.76a.75.75,0,0,0-.39-.07L47,82.81l-.17,0c-2.21.73-5.61,1.84-6.34,2A10.28,10.28,0,0,1,38,83a46.73,46.73,0,0,1,6.1-2.4l4.23-.84h0l3.46-.69a.44.44,0,0,1,.49.32c.23.52-.29,1.35-.75,2.08A8.78,8.78,0,0,0,50.9,82.54ZM35.34,77.35,44,79l-.31.06-.09,0c-7.25,2.39-7.44,3.25-7.53,3.67a.93.93,0,0,0,.27.88C39,86.11,40,86.48,40.49,86.48a1.16,1.16,0,0,0,.3,0c.68-.17,5.57-1.78,6.45-2.08L50.67,84l.13,0c.23.5.85.88,1.93,1.17a13.12,13.12,0,0,0,1.65.31l-5.06,3.41-26.18-5.4ZM50.59,95.43a11.14,11.14,0,0,1-.45-4.91,82.64,82.64,0,0,0,18.54-1C64.12,95.41,53.07,95.49,50.59,95.43Zm19.15-8.32a.29.29,0,0,1,.18.24l-.13.3-.11,0A76.51,76.51,0,0,1,51.86,89L57,85.55a3.51,3.51,0,0,0,2.2-.72A3.88,3.88,0,0,0,60,83C63.93,84.45,67.44,86,69.74,87.11ZM77.45,58l-.18.65c-.12.43-.24.94-.37,1.51-.43,1.88-1,4.46-2,5.68-1.31,1.57-11.92,8.67-15.56,10.22a.78.78,0,0,0-.48.73c0,2.92-.25,6.4-.71,6.93-.65.57-4.89.24-5.84-.41a6.1,6.1,0,0,1,.57-1c.64-1,1.44-2.27.86-3.56a2.06,2.06,0,0,0-2.12-1.24h-.09c0-1.11.55-3.25,2.65-3.4l2.62-.17a.78.78,0,0,0,.46-.19c.18-.16,4.49-3.88,6.25-5.81l.61-.67a40.16,40.16,0,0,1,5.73-5.49.74.74,0,0,0,.06-.07.76.76,0,0,0,.11-.12,1.11,1.11,0,0,0,.11-.27.76.76,0,0,0,0-.16.73.73,0,0,0,0-.1c-.69-5-.5-12.23,0-14.16a6.83,6.83,0,0,0,.22-2.52c1-2.16,2.91-5.27,5.59-6.77a4.61,4.61,0,0,1,1.52,1.2c1.37,1.69,1.09,4.3.82,6.82a15.78,15.78,0,0,0-.12,4A17.52,17.52,0,0,1,77.45,58Z" transform="translate(-19.98 -2)"/></svg>